<svg width="1600" height="900" viewBox="0 0 1600 900" fill="none" xmlns="http://www.w3.org/2000/svg">
<defs>
<linearGradient id="bg" x1="230" y1="60" x2="1420" y2="860" gradientUnits="userSpaceOnUse">
<stop stop-color="#052B4D"/>
<stop offset="0.48" stop-color="#0E2347"/>
<stop offset="1" stop-color="#04242C"/>
</linearGradient>
<linearGradient id="horizon" x1="0" y1="610" x2="1600" y2="610" gradientUnits="userSpaceOnUse">
<stop stop-color="#0C3A54"/>
<stop offset="1" stop-color="#1F4230"/>
</linearGradient>
<linearGradient id="groundL" x1="0" y1="660" x2="800" y2="900" gradientUnits="userSpaceOnUse">
<stop stop-color="#3D2D2B"/>
<stop offset="1" stop-color="#2C1D24"/>
</linearGradient>
<linearGradient id="groundR" x1="800" y1="630" x2="1600" y2="900" gradientUnits="userSpaceOnUse">
<stop stop-color="#123D34"/>
<stop offset="1" stop-color="#164B3E"/>
</linearGradient>
<linearGradient id="sun" x1="762" y1="130" x2="870" y2="320" gradientUnits="userSpaceOnUse">
<stop stop-color="#59E4FF"/>
<stop offset="1" stop-color="#8EFFC3"/>
</linearGradient>
<radialGradient id="glowL" cx="0" cy="0" r="1" gradientUnits="userSpaceOnUse" gradientTransform="translate(415 435) rotate(90) scale(250 470)">
<stop stop-color="#FF734B" stop-opacity="0.56"/>
<stop offset="1" stop-color="#FF734B" stop-opacity="0"/>
</radialGradient>
<radialGradient id="glowR" cx="0" cy="0" r="1" gradientUnits="userSpaceOnUse" gradientTransform="translate(1180 455) rotate(90) scale(280 520)">
<stop stop-color="#49F4C6" stop-opacity="0.55"/>
<stop offset="1" stop-color="#49F4C6" stop-opacity="0"/>
</radialGradient>
<linearGradient id="river" x1="770" y1="470" x2="990" y2="900" gradientUnits="userSpaceOnUse">
<stop stop-color="#48A7EA" stop-opacity="0.8"/>
<stop offset="1" stop-color="#60D5FF" stop-opacity="0.15"/>
</linearGradient>
<filter id="blur1" x="-120" y="-120" width="1840" height="1140" filterUnits="userSpaceOnUse" color-interpolation-filters="sRGB">
<feGaussianBlur stdDeviation="45"/>
</filter>
</defs>
<rect width="1600" height="900" fill="url(#bg)"/>
<g opacity="0.8" filter="url(#blur1)">
<circle cx="180" cy="150" r="120" fill="#2AA7FF"/>
<circle cx="1440" cy="170" r="160" fill="#2CFFD6"/>
</g>
<circle cx="818" cy="246" r="112" fill="url(#sun)" fill-opacity="0.95"/>
<ellipse cx="818" cy="270" rx="250" ry="84" fill="#56DCD6" fill-opacity="0.18"/>
<path d="M0 578H1600V680H0V578Z" fill="url(#horizon)"/>
<path d="M0 645L735 620L800 900H0V645Z" fill="url(#groundL)"/>
<path d="M1600 640L865 615L800 900H1600V640Z" fill="url(#groundR)"/>
<path d="M761 454L839 454L1035 900H565L761 454Z" fill="url(#river)" fill-opacity="0.78"/>
<ellipse cx="401" cy="603" rx="370" ry="220" fill="url(#glowL)"/>
<ellipse cx="1200" cy="612" rx="390" ry="260" fill="url(#glowR)"/>
<g opacity="0.85">
<rect x="228" y="406" width="57" height="182" rx="5" fill="#463A44"/>
<rect x="301" y="370" width="70" height="218" rx="5" fill="#3D3241"/>
<rect x="387" y="430" width="52" height="158" rx="5" fill="#493844"/>
<rect x="454" y="391" width="61" height="197" rx="5" fill="#3C2E3A"/>
<rect x="532" y="421" width="55" height="167" rx="5" fill="#4C3942"/>
<rect x="609" y="362" width="81" height="226" rx="5" fill="#3A2F3E"/>
<rect x="716" y="448" width="43" height="140" rx="5" fill="#4D3C47"/>
<rect x="318" y="298" width="28" height="132" rx="8" fill="#2C2A39"/>
<rect x="546" y="313" width="22" height="108" rx="8" fill="#262838"/>
<rect x="666" y="301" width="24" height="122" rx="8" fill="#2B2B3A"/>
</g>
<g opacity="0.68">
<path d="M334 260C318 225 335 183 364 164C390 147 425 146 448 160C471 176 488 209 478 240C468 272 439 290 407 292C374 294 348 286 334 260Z" fill="#7D8797"/>
<path d="M517 275C503 244 517 209 545 191C570 176 602 176 624 188C646 202 661 230 652 259C643 286 617 302 588 304C558 306 530 300 517 275Z" fill="#8692A4"/>
<path d="M647 259C635 233 647 205 670 190C690 177 716 177 735 186C753 196 766 218 759 242C752 265 731 278 707 279C683 281 659 276 647 259Z" fill="#7F8C9C"/>
</g>
<g opacity="0.98">
<rect x="898" y="396" width="58" height="192" rx="6" fill="#1B6B5B"/>
<rect x="972" y="350" width="72" height="238" rx="6" fill="#1F7A66"/>
<rect x="1061" y="418" width="56" height="170" rx="6" fill="#1D705F"/>
<rect x="1134" y="374" width="66" height="214" rx="6" fill="#1A6656"/>
<rect x="1215" y="426" width="52" height="162" rx="6" fill="#217E69"/>
<rect x="1282" y="342" width="84" height="246" rx="6" fill="#1A624F"/>
<rect x="1383" y="454" width="44" height="134" rx="6" fill="#21856D"/>
</g>
<g>
<circle cx="915" cy="376" r="22" fill="#69E6B9"/>
<rect x="910" y="365" width="10" height="48" rx="3" fill="#245E4C"/>
<circle cx="1112" cy="350" r="20" fill="#60DBAF"/>
<rect x="1108" y="341" width="8" height="42" rx="3" fill="#205A47"/>
<circle cx="1236" cy="370" r="24" fill="#70EDC0"/>
<rect x="1231" y="358" width="10" height="52" rx="3" fill="#21624C"/>
<circle cx="1360" cy="322" r="26" fill="#6EEABD"/>
<rect x="1355" y="310" width="10" height="57" rx="3" fill="#1F5A47"/>
</g>
<g opacity="0.95">
<path d="M789 303C827 258 899 252 944 287C986 319 990 383 952 427C914 471 843 478 797 443C751 408 750 348 789 303Z" fill="#2BD2BE"/>
<path d="M808 315C840 277 899 274 937 303C971 330 974 382 944 417C913 453 854 458 815 430C777 401 775 353 808 315Z" fill="#1F5F87"/>
<path d="M860 285C879 291 888 305 892 321C897 342 889 360 875 375C861 390 845 403 842 421C838 443 852 459 875 473L862 482C834 466 819 444 824 419C829 390 852 374 865 359C876 346 881 336 879 324C878 312 871 301 855 297L860 285Z" fill="#4CE8C6"/>
<path d="M905 328C929 335 941 356 937 379C933 403 912 420 889 420C866 420 848 405 845 385C841 361 852 341 872 333L876 348C863 354 857 366 859 379C862 394 874 405 889 405C904 405 918 394 921 378C924 362 916 348 901 343L905 328Z" fill="#84FFD3"/>
</g>
<g opacity="0.83">
<circle cx="140" cy="130" r="2.6" fill="#B3EEFF"/>
<circle cx="192" cy="94" r="1.9" fill="#C7F5FF"/>
<circle cx="222" cy="154" r="2.2" fill="#C8ECFF"/>
<circle cx="280" cy="120" r="1.8" fill="#D8EEFF"/>
<circle cx="1320" cy="102" r="2.4" fill="#B8F1E8"/>
<circle cx="1370" cy="140" r="1.8" fill="#CBFFE9"/>
<circle cx="1452" cy="114" r="2.2" fill="#BDFFF1"/>
<circle cx="1498" cy="170" r="1.7" fill="#D8FFF8"/>
</g>
</svg>
